<mxfile host="Electron" modified="2024-05-16T01:56:22.155Z" agent="Mozilla/5.0 (Macintosh; Intel Mac OS X 10_15_7) AppleWebKit/537.36 (KHTML, like Gecko) draw.io/24.2.5 Chrome/120.0.6099.109 Electron/28.1.0 Safari/537.36" etag="dPX01HBTiEYEwd-uh2b8" version="24.2.5" type="device">
  <diagram name="第 1 页" id="ef-JRY9-kdoeh42fYsWZ">
    <mxGraphModel dx="1111" dy="854" grid="1" gridSize="10" guides="1" tooltips="1" connect="1" arrows="1" fold="1" page="1" pageScale="1" pageWidth="827" pageHeight="1169" math="0" shadow="0">
      <root>
        <mxCell id="0" />
        <mxCell id="1" parent="0" />
        <mxCell id="IAw4kWQQC1en_XzFR9YM-4" style="edgeStyle=orthogonalEdgeStyle;rounded=0;orthogonalLoop=1;jettySize=auto;html=1;entryX=0;entryY=0.5;entryDx=0;entryDy=0;" edge="1" parent="1" source="IAw4kWQQC1en_XzFR9YM-1" target="IAw4kWQQC1en_XzFR9YM-2">
          <mxGeometry relative="1" as="geometry" />
        </mxCell>
        <mxCell id="IAw4kWQQC1en_XzFR9YM-1" value="Sender" style="rounded=1;whiteSpace=wrap;html=1;" vertex="1" parent="1">
          <mxGeometry x="80" y="120" width="100" height="40" as="geometry" />
        </mxCell>
        <mxCell id="IAw4kWQQC1en_XzFR9YM-5" style="edgeStyle=orthogonalEdgeStyle;rounded=0;orthogonalLoop=1;jettySize=auto;html=1;entryX=0;entryY=0.5;entryDx=0;entryDy=0;" edge="1" parent="1" source="IAw4kWQQC1en_XzFR9YM-2" target="IAw4kWQQC1en_XzFR9YM-3">
          <mxGeometry relative="1" as="geometry" />
        </mxCell>
        <mxCell id="IAw4kWQQC1en_XzFR9YM-2" value="Receiver" style="rounded=1;whiteSpace=wrap;html=1;" vertex="1" parent="1">
          <mxGeometry x="280" y="120" width="106" height="40" as="geometry" />
        </mxCell>
        <mxCell id="IAw4kWQQC1en_XzFR9YM-3" value="Actions" style="rounded=1;whiteSpace=wrap;html=1;" vertex="1" parent="1">
          <mxGeometry x="490" y="120" width="100" height="40" as="geometry" />
        </mxCell>
        <mxCell id="IAw4kWQQC1en_XzFR9YM-6" value="S&lt;span style=&quot;background-color: initial;&quot;&gt;ignal&lt;/span&gt;" style="text;html=1;align=center;verticalAlign=middle;whiteSpace=wrap;rounded=0;" vertex="1" parent="1">
          <mxGeometry x="200" y="110" width="60" height="30" as="geometry" />
        </mxCell>
      </root>
    </mxGraphModel>
  </diagram>
</mxfile>
